<svg width="285" height="77" viewBox="0 0 285 77" fill="none" xmlns="http://www.w3.org/2000/svg">
<path d="M37.8344 36.746C37.8257 36.7809 37.8171 36.8158 37.8084 36.8507C37.522 37.7583 37.4179 38.5523 37.4526 39.2504C37.496 39.9398 37.6695 40.5419 37.9472 41.0742C38.2423 41.6414 38.6588 42.1563 39.1447 42.6362C39.6307 43.1249 40.1947 43.5874 40.7848 44.0237C41.0538 44.2331 41.3402 44.4425 41.6439 44.6781C41.8869 44.8614 42.1299 45.0534 42.3641 45.2541C42.5984 45.0621 42.8414 44.8701 43.0844 44.6781C43.3881 44.4425 43.6658 44.2244 43.9435 44.0237C44.5249 43.5786 45.0889 43.1249 45.5836 42.6362C46.0695 42.1475 46.486 41.6327 46.7811 41.0742C47.0588 40.5419 47.241 39.9398 47.2757 39.2504C47.3191 38.5523 47.215 37.7583 46.9199 36.8507C46.9112 36.8158 46.9026 36.7809 46.8939 36.746C46.998 36.7547 47.1021 36.746 47.2063 36.7286C47.8658 36.6064 48.4819 36.5017 49.0633 36.4231C49.2455 36.397 49.4278 36.3795 49.6013 36.3533C49.9397 37.5226 50.0525 38.5785 49.9831 39.5297C49.905 40.5768 49.6187 41.5018 49.1848 42.3482C48.7596 43.1598 48.2129 43.8579 47.5968 44.4949C46.9807 45.1232 46.2951 45.6904 45.5922 46.2227C45.3493 46.4059 45.1063 46.5892 44.898 46.755C44.7331 46.8859 44.5596 47.0168 44.3947 47.1564L44.4468 47.2175C44.5075 47.2873 44.577 47.3658 44.6464 47.4531C45.2538 48.1686 45.7484 48.9278 46.0695 49.7568C46.3993 50.5858 46.5468 51.4759 46.4513 52.4445V52.4794C46.3645 53.3433 46.1129 54.0763 45.7571 54.6784C45.3579 55.3416 44.8286 55.839 44.2385 56.1706C43.9522 56.3364 43.6484 56.4585 43.336 56.5371C43.0237 56.6243 42.7026 56.6592 42.3815 56.6592C42.0604 56.6592 41.7394 56.6156 41.427 56.5371C41.1146 56.4585 40.8109 56.3364 40.5245 56.1706C39.9257 55.839 39.3964 55.3328 38.9972 54.6609C38.6675 54.1024 38.4245 53.4218 38.329 52.6364L38.3117 52.4357C38.2162 51.4759 38.3638 50.5858 38.6935 49.7481C39.0146 48.9278 39.5179 48.1599 40.1166 47.4443C40.1774 47.3658 40.2468 47.2873 40.3249 47.2087L40.377 47.1477C40.2034 47.008 40.0385 46.8771 39.8737 46.7462C39.6654 46.5805 39.4224 46.4059 39.1795 46.2139C38.4766 45.6817 37.791 45.1144 37.1749 44.4862C36.5588 43.8491 36.0034 43.1511 35.5869 42.3395C35.1443 41.5018 34.858 40.5681 34.7886 39.5297C34.7191 38.5785 34.832 37.5226 35.1704 36.3533C35.3439 36.3708 35.5262 36.397 35.7084 36.4231C36.2898 36.5017 36.9059 36.6151 37.5654 36.7286C37.6262 36.7547 37.7303 36.7547 37.8344 36.746ZM42.5637 49.207C42.503 49.1285 42.4422 49.0674 42.3902 49.0063L42.3555 48.9714L42.3208 49.0063C42.2687 49.0674 42.208 49.1372 42.1472 49.207C41.7567 49.6695 41.4356 50.1495 41.2274 50.6381C41.0191 51.1268 40.9237 51.6242 40.9757 52.1478L40.9844 52.2089C41.0278 52.5928 41.1232 52.9069 41.2621 53.16C41.4096 53.4392 41.6092 53.64 41.8175 53.7621C41.8956 53.8058 41.991 53.8407 42.0778 53.8668C42.1646 53.893 42.26 53.9017 42.3555 53.9017C42.4509 53.9017 42.5464 53.893 42.6332 53.8668C42.7199 53.8407 42.8067 53.8058 42.8935 53.7621C43.1018 53.64 43.3013 53.448 43.4489 53.1687C43.5877 52.907 43.6918 52.5754 43.7352 52.174V52.1478C43.7873 51.6242 43.6918 51.1181 43.4836 50.6381C43.2753 50.1495 42.9542 49.6695 42.5637 49.207Z" fill="#B500B5"/>
<path d="M45.6965 70.3594C44.473 71.2931 43.3709 72.3664 42.5378 73.6754L42.3556 73.9633L42.1734 73.6754C41.3403 72.3664 40.2383 71.2931 39.0147 70.3594C37.7825 69.4257 36.4288 68.6316 35.0924 67.9073C32.8796 66.7031 30.6321 65.464 28.94 63.5791C27.2739 61.7292 26.1458 59.2771 26.1284 55.6645C22.5272 55.647 20.0801 54.5213 18.2404 52.8459C16.3747 51.153 15.1338 48.9017 13.9363 46.6765V46.6678C13.0599 45.036 12.1834 43.4216 11.064 42.1738C10.795 41.8684 10.2657 41.3448 9.71031 40.8212C9.25907 40.4024 8.79048 40.0009 8.42602 39.7304L8.19172 39.5559L8.42602 39.3814C8.79048 39.1109 9.25907 38.7007 9.71031 38.2906C10.2744 37.7758 10.795 37.2435 11.064 36.9381C12.1834 35.6815 13.0512 34.0671 13.9363 32.4441V32.4353C15.1338 30.2101 16.3747 27.9675 18.2404 26.2659C20.0801 24.5905 22.5272 23.4648 26.1284 23.4473C26.1458 19.8347 27.2652 17.3826 28.94 15.5327C30.6321 13.6565 32.8709 12.4174 35.0924 11.2045C36.4288 10.4715 37.7912 9.68612 39.0147 8.75242C40.2383 7.81872 41.3403 6.74539 42.1734 5.43646L42.3556 5.1485L42.5378 5.43646C43.3709 6.74539 44.473 7.81872 45.6965 8.75242C46.9287 9.68612 48.2825 10.4802 49.6188 11.2045C51.8316 12.4087 54.0791 13.6478 55.7713 15.5327C57.4374 17.3826 58.5655 19.8347 58.5828 23.4473C62.184 23.4648 64.6311 24.5905 66.4708 26.2659C68.3365 27.9588 69.5774 30.2101 70.7749 32.4353V32.4441C71.6514 34.0759 72.5278 35.6902 73.6472 36.9381C73.9162 37.2435 74.4456 37.767 75.0009 38.2906C75.4522 38.7095 75.9208 39.1109 76.2852 39.3814L76.5195 39.5559L76.2852 39.7304C75.9208 40.0009 75.4522 40.4111 75.0009 40.8212C74.4369 41.3361 73.9162 41.8684 73.6472 42.1738C72.5278 43.4303 71.66 45.0447 70.7749 46.6678V46.6765C69.5774 48.9017 68.3365 51.1443 66.4708 52.8459C64.6311 54.5213 62.184 55.647 58.5828 55.6645C58.5655 59.2771 57.446 61.7292 55.7713 63.5791C54.0791 65.4553 51.8403 66.6944 49.6188 67.9073C48.2825 68.6316 46.9287 69.4257 45.6965 70.3594ZM12.383 39.4861L12.3049 39.5646L12.383 39.6432C12.4698 39.7217 12.5479 39.8002 12.5913 39.8526C13.381 40.638 14.0405 41.5193 14.6392 42.4617C15.2293 43.3954 15.7673 44.3902 16.314 45.385L16.4702 45.673C17.4334 47.4618 18.4313 49.3118 19.8545 50.6382C20.8871 51.6068 22.1974 52.2438 23.5945 52.6278C25.2086 53.0641 26.9528 53.1601 28.5582 52.9943L28.8185 52.9681L28.7925 53.2299C28.6276 54.8355 28.723 56.5807 29.1569 58.2038C29.5387 59.6087 30.1809 60.9264 31.1441 61.9561C32.4631 63.3784 34.3114 64.382 36.0904 65.3506L36.3767 65.5076C37.366 66.0487 38.3552 66.581 39.2924 67.1831C40.2296 67.7852 41.1147 68.4484 41.8957 69.2424C41.9651 69.3123 42.0866 69.4344 42.2081 69.574L42.3469 69.7224L42.4858 69.574C42.6073 69.4432 42.7288 69.321 42.7982 69.2424C43.5792 68.4571 44.4643 67.7852 45.4015 67.1831C46.3387 66.581 47.3279 66.0399 48.3172 65.5076L48.6035 65.3506C50.3824 64.382 52.2308 63.3784 53.5498 61.9561C54.513 60.9177 55.1552 59.6087 55.537 58.2038C55.9795 56.5807 56.0663 54.8355 55.9014 53.2299L55.8754 52.9681L56.1357 52.9943C57.7411 53.1601 59.4853 53.0641 61.0993 52.6278C62.5051 52.2438 63.8068 51.5981 64.8394 50.6382C66.2625 49.3118 67.2605 47.4618 68.2237 45.673L68.3886 45.3763C68.9266 44.3815 69.4646 43.3867 70.0633 42.453C70.6621 41.5106 71.3303 40.6205 72.1113 39.8439C72.1633 39.7915 72.2328 39.7217 72.3195 39.6344L72.3976 39.5559L72.3195 39.4774C72.2328 39.3988 72.1547 39.3203 72.1113 39.2679C71.3216 38.4826 70.6621 37.6012 70.0633 36.6588C69.4733 35.7251 68.9352 34.7303 68.3886 33.7355L68.2324 33.4476C67.2691 31.6587 66.2712 29.8087 64.8481 28.4824C63.8154 27.5138 62.5051 26.8767 61.108 26.4928C59.494 26.0565 57.7498 25.9605 56.1444 26.1263L55.8841 26.1525L55.9101 25.8907C56.075 24.2851 55.9795 22.5398 55.5456 20.9167C55.1638 19.5118 54.5217 18.1942 53.5585 17.1645C52.2395 15.7421 50.3911 14.7386 48.6122 13.77L48.3258 13.6129C47.3366 13.0719 46.3473 12.5396 45.4102 11.9375C44.473 11.3354 43.5878 10.6722 42.8069 9.8781C42.7374 9.80829 42.616 9.68612 42.4945 9.5465L42.3556 9.39816L42.2168 9.5465C42.0953 9.6774 41.9738 9.79956 41.9044 9.8781C41.1234 10.6635 40.2383 11.3354 39.3011 11.9375C38.3639 12.5396 37.3746 13.0806 36.3854 13.6129L36.099 13.77C34.3201 14.7386 32.4718 15.7421 31.1528 17.1645C30.1896 18.2029 29.5474 19.5118 29.1656 20.9167C28.723 22.5398 28.6363 24.2851 28.8011 25.8907L28.8272 26.1525L28.5668 26.1263C26.9615 25.9605 25.2173 26.0565 23.6032 26.4928C22.1974 26.8767 20.8958 27.5225 19.8632 28.4824C18.44 29.8087 17.4421 31.6587 16.4789 33.4476L16.3227 33.7355C15.7847 34.7303 15.2466 35.7251 14.6479 36.6588C14.0491 37.6012 13.381 38.4913 12.6 39.2679C12.5479 39.329 12.4698 39.3988 12.383 39.4861ZM34.2767 45.4635C32.8015 45.5508 31.3263 45.4897 29.9379 45.1232C28.5408 44.748 27.2305 44.0586 26.0937 42.898C25.5036 42.2959 25.0003 41.6153 24.4623 40.891C24.2107 40.5507 23.9417 40.1929 23.69 39.8701L23.5598 39.7043L23.4557 39.5734L23.5598 39.4425L23.69 39.2767C23.9417 38.9538 24.202 38.596 24.4623 38.2557C25.0003 37.5314 25.5036 36.8508 26.0937 36.2487C27.5516 34.7478 29.3131 34.041 31.1701 33.7704C32.923 33.5174 34.754 33.6657 36.5242 33.9101C36.047 30.3323 36.0817 28.0548 36.8627 26.2136C37.6697 24.32 39.2577 22.9063 41.8783 21.0389L42.2081 20.7597L42.3469 20.6462L42.4858 20.7597L42.8329 21.0476L43.0498 21.2309C47.7705 25.1751 49.1676 26.3532 48.1696 33.9101C49.9399 33.6657 51.7709 33.5261 53.5238 33.7704C55.3894 34.0322 57.1423 34.7478 58.6002 36.2487C59.1903 36.8508 59.6936 37.5314 60.2316 38.2557C60.4832 38.596 60.7522 38.9538 61.0039 39.2767L61.134 39.4425L61.2382 39.5734L61.134 39.7043L61.0039 39.8701C60.7522 40.1929 60.4919 40.5507 60.2316 40.891C59.6936 41.6153 59.1903 42.2959 58.6002 42.898C57.4721 44.0586 56.1618 44.748 54.756 45.1232C53.3676 45.4985 51.8924 45.5595 50.4172 45.4635L50.2089 45.4548V45.2541V43.0464V42.8282H50.4258H50.6341C52.2828 42.8282 53.6105 42.6973 54.7386 42.2087C55.832 41.7375 56.7432 40.9259 57.6109 39.5646C56.7518 38.2034 55.832 37.3918 54.7386 36.9206C53.6105 36.4319 52.2742 36.301 50.6254 36.301C50.1308 36.301 49.5928 36.3534 49.0201 36.4319C48.4387 36.5105 47.8225 36.6239 47.163 36.7373C46.9201 36.781 46.6597 36.7461 46.4341 36.6501C46.1998 36.5541 45.9916 36.4058 45.8354 36.2225C45.6531 36.0654 45.4969 35.856 45.4015 35.6204C45.306 35.3935 45.2713 35.1317 45.3147 34.8874C45.7052 32.732 45.9742 30.6988 45.6271 28.8925C45.2887 27.1385 44.3428 25.5853 42.3296 24.3112C40.3077 25.5853 39.3705 27.1385 39.0321 28.8925C38.6763 30.6988 38.954 32.732 39.3445 34.8874C39.3879 35.1317 39.3532 35.3935 39.2577 35.6204C39.1622 35.856 39.006 36.0742 38.8238 36.2225C38.6676 36.4058 38.4594 36.5628 38.2251 36.6501C37.9994 36.7461 37.7391 36.781 37.4961 36.7373C36.8366 36.6152 36.2205 36.5105 35.6391 36.4319C35.0664 36.3534 34.5284 36.301 34.0338 36.301C32.385 36.301 31.0573 36.4319 29.9205 36.9206C28.8272 37.3918 27.916 38.2034 27.0482 39.5646C27.9073 40.9259 28.8272 41.7375 29.9205 42.2087C31.0486 42.6973 32.3763 42.8282 34.0251 42.8282H34.2333H34.4503V43.0464V45.2541V45.4548L34.2767 45.4635ZM31.4825 50.2979C31.066 50.3502 30.6234 50.3764 30.1809 50.3939C29.6255 50.4113 29.0701 50.4026 28.5929 50.3589C27.6297 50.2804 26.7532 50.1059 25.9635 49.8528C25.1739 49.5998 24.4623 49.2594 23.8202 48.8406C21.4512 47.2961 20.3925 45.4374 19.3512 43.6049C18.5789 42.2436 17.8152 40.891 16.5136 39.7217L16.3314 39.5559L16.5136 39.3901C17.8152 38.2121 18.5789 36.8682 19.3512 35.507C20.3925 33.6744 21.4512 31.8158 23.8202 30.2712C24.4623 29.8524 25.1739 29.5208 25.9635 29.259C26.7532 29.0059 27.6297 28.8314 28.5929 28.7529C29.0701 28.718 29.6255 28.7005 30.1809 28.718C30.6234 28.7354 31.066 28.7616 31.4825 28.814C31.4305 28.3951 31.4044 27.9501 31.3871 27.5138C31.3697 26.9553 31.3784 26.4055 31.4218 25.9169C31.4999 24.9483 31.6734 24.0756 31.9251 23.2815C32.1767 22.4875 32.5152 21.7719 32.9317 21.1262C34.3375 18.9446 36.3073 17.7666 38.2077 16.6322C39.6829 15.7508 41.1234 14.8869 42.1907 13.5955L42.3556 13.3948L42.5205 13.6042C43.5878 14.8957 45.0283 15.7508 46.5035 16.6409C48.4039 17.7753 50.3738 18.9533 51.7795 21.1349C52.1961 21.7806 52.5345 22.4875 52.7862 23.2903C53.0378 24.0844 53.2114 24.957 53.2895 25.9256C53.3242 26.4055 53.3415 26.9553 53.3242 27.5225C53.3068 27.9588 53.2808 28.4038 53.2287 28.8227C53.6452 28.7703 54.0878 28.7441 54.5304 28.7267C55.0857 28.7092 55.6411 28.718 56.1184 28.7616C57.0816 28.8401 57.958 29.0147 58.7477 29.2677C59.5374 29.5208 60.2489 29.8611 60.8911 30.28C63.0865 31.7023 64.2406 33.657 65.3687 35.5593C66.2018 36.9555 67.0088 38.3255 68.1976 39.3988L68.3799 39.5646L68.1976 39.7304C67.0088 40.8038 66.1931 42.1738 65.3687 43.57C64.2406 45.4723 63.0865 47.4269 60.8911 48.8493C60.2489 49.2682 59.5374 49.5998 58.7477 49.8616C57.958 50.1146 57.0816 50.2891 56.1184 50.3677C55.6411 50.4026 55.0857 50.42 54.5304 50.4026C54.0878 50.3851 53.6452 50.3589 53.2287 50.3066C53.2808 50.7254 53.3068 51.1705 53.3242 51.6068C53.3415 52.1653 53.3328 52.715 53.2895 53.2037C53.2114 54.1723 53.0378 55.0449 52.7862 55.839C52.5345 56.6331 52.1961 57.3486 51.7795 57.9944C50.3738 60.1759 48.4039 61.354 46.5035 62.4884C45.0283 63.3697 43.5878 64.2336 42.5205 65.5251L42.3556 65.7258L42.1907 65.5251C41.1234 64.2336 39.6829 63.3784 38.2077 62.4884C36.3073 61.354 34.3375 60.1759 32.9317 57.9944C32.5152 57.3486 32.1767 56.6418 31.9251 55.839C31.6734 55.0449 31.4999 54.1723 31.4218 53.2037C31.3871 52.7238 31.3697 52.174 31.3871 51.6068C31.4044 51.1618 31.4305 50.7167 31.4825 50.2979ZM19.8284 39.5559C19.8979 39.6432 19.9673 39.7392 20.028 39.8264C20.1235 39.9573 20.2189 40.0882 20.3144 40.2278C20.8784 41.0394 21.321 41.8073 21.7289 42.5141C22.8917 44.5211 23.8028 46.1006 26.6144 47.1303C27.7685 47.5491 29.0701 47.8109 30.3458 47.8894C31.63 47.968 32.8796 47.872 33.9383 47.584L34.3028 47.488L34.2073 47.8545C33.9209 48.9191 33.8168 50.1757 33.8949 51.4672C33.9643 52.7412 34.216 54.0327 34.6325 55.1758C35.6218 57.8984 37.4441 58.9892 39.492 60.2108C40.1515 60.6035 40.837 61.0136 41.5139 61.4936C41.6701 61.5983 41.835 61.7205 42.0085 61.8514C42.13 61.9473 42.2515 62.0346 42.3556 62.1219C42.4684 62.0346 42.5812 61.9473 42.7027 61.8514C42.8763 61.7205 43.0412 61.5983 43.1973 61.4936C43.8829 61.0136 44.5597 60.6035 45.2192 60.2108C47.2585 58.9892 49.0808 57.8984 50.0787 55.1758C50.4953 54.024 50.7469 52.7325 50.8163 51.4672C50.8944 50.1844 50.7903 48.9191 50.5039 47.8545L50.4085 47.488L50.7729 47.584C51.8229 47.872 53.0812 47.968 54.3655 47.8894C55.6411 47.8109 56.9514 47.5578 58.0969 47.1303C60.8043 46.1355 61.889 44.3117 63.1126 42.2698C63.503 41.6066 63.9109 40.9259 64.3968 40.2278C64.4923 40.0882 64.5877 39.9573 64.6832 39.8264C64.7439 39.7392 64.8134 39.6519 64.8828 39.5559C64.8134 39.4687 64.7439 39.3727 64.6832 39.2854C64.5877 39.1545 64.4923 39.0236 64.3968 38.884C63.9109 38.1859 63.503 37.5053 63.1126 36.8421C61.889 34.7914 60.813 32.9764 58.0969 31.9816C56.9427 31.5627 55.6411 31.3009 54.3655 31.2224C53.0812 31.1439 51.8316 31.2398 50.7729 31.5278L50.4085 31.6238L50.5039 31.2573C50.7903 30.1927 50.8944 28.9361 50.8163 27.6446C50.7469 26.3793 50.4953 25.0791 50.0787 23.936C49.0895 21.2134 47.2672 20.1227 45.2279 18.901C44.5684 18.5083 43.8829 18.0982 43.206 17.6182C43.0498 17.5135 42.885 17.3914 42.7114 17.2605C42.5899 17.1645 42.4684 17.0772 42.3643 16.99C42.2515 17.0772 42.1387 17.1645 42.0172 17.2605C41.8436 17.3914 41.6788 17.5135 41.5226 17.6182C40.837 18.0982 40.1602 18.5083 39.5007 18.901C37.4614 20.1227 35.6391 21.2134 34.6412 23.936C34.2247 25.0879 33.973 26.3793 33.9036 27.6446C33.8255 28.9274 33.9296 30.1927 34.216 31.2573L34.3114 31.6238L33.947 31.5278C32.897 31.2398 31.6387 31.1439 30.3544 31.2224C29.0788 31.3009 27.7685 31.554 26.623 31.9816C23.8202 33.0113 22.9003 34.5994 21.7375 36.5977C21.3297 37.3046 20.8871 38.0637 20.3231 38.884C20.2276 39.0236 20.1322 39.1545 20.0367 39.2854C19.9673 39.3814 19.8979 39.4687 19.8284 39.5559Z" fill="#FF8C00"/>
<path fill-rule="evenodd" clip-rule="evenodd" d="M112.749 29.1278V49.8438H108.688V41.5975C101.147 43.4038 96.2615 41.4666 97.997 32.2867H93.8664V29.1365H102.266C101.347 35.0616 100.14 41.0652 108.697 38.4474V29.1278H112.749ZM267.055 33.4036H266.89L264.382 41.4317H269.571L267.055 33.4036ZM206.502 33.4036H206.337L203.83 41.4317H209.019L206.502 33.4036ZM127.666 33.4036H127.501L124.993 41.4317H130.182L127.666 33.4036ZM124.29 32.2605L118.424 49.8351H122.364L124.151 44.5557H131.015L132.803 49.8351H136.743L130.877 32.2605H135.832V29.1278H119.327V32.2605H124.29ZM160.355 49.5122C167.418 50.9956 171.158 49.4249 172.555 42.2433C173.406 37.9674 173.978 33.4298 174.638 29.1278L170.542 29.1365L168.954 39.6428C163.175 40.3671 163.192 33.1855 162.645 29.1365C161.162 29.1365 159.678 29.1365 158.194 29.1365L159.07 35.2274C159.86 39.7999 161.457 43.0024 168.468 42.793C167.609 47.3045 164.294 47.5401 160.355 46.4057V49.5122ZM263.688 32.2605L257.822 49.8351H261.762L263.549 44.5557H270.413L272.201 49.8351H276.14L270.274 32.2605H275.229V29.1278H258.724V32.2605H263.688ZM203.127 32.2605L197.261 49.8351H201.2L202.988 44.5557H209.852L211.639 49.8351H215.579L209.713 32.2605H214.668V29.1278H198.163V32.2605H203.127ZM139.32 29.1365H155.261V32.2692H149.377V49.8438H145.316V32.2605H139.32V29.1365ZM255.019 29.1365V32.2692H246.853V49.8438H242.792V29.1278L255.019 29.1365ZM231.945 37.5311V29.1278H236.006V49.8438H231.945V40.6638H224.916V49.8438H220.855V29.1278H224.916V37.5311H231.945ZM183.897 42.7319V49.8438H179.836V29.1278C182.864 29.2325 188.783 28.6478 191.299 30.044C193.243 31.1784 194.51 33.2029 194.51 35.8295C194.51 39.1367 192.245 41.868 189.06 42.5225C187.394 42.8715 185.589 42.7494 183.897 42.7319ZM187.724 39.3985C189.295 38.9186 190.345 37.5137 190.345 35.8382C190.345 34.4071 189.555 33.2989 188.279 32.6968C186.917 32.0511 185.355 32.2867 183.906 32.2867L183.897 39.5992C185.173 39.5992 186.483 39.7825 187.724 39.3985Z" fill="#FF8C00"/>
<path d="M96.2473 17.8551V8.40081H97.575V16.7034H101.076V8.40081H102.403V16.7034H105.904V8.40081H107.218V17.8551H96.2473Z" fill="#FF8C00" fill-opacity="0.94"/>
<path d="M119.783 17.8551V8.40081H121.111V12.378H122.519L124.92 8.40081H126.382L123.619 12.8869V12.9137L126.556 17.8551H125.041L122.519 13.5297H121.111V17.8551H119.783Z" fill="#FF8C00" fill-opacity="0.94"/>
<path d="M137.255 13.061C137.255 11.704 137.724 10.5613 138.663 9.63281C139.602 8.70435 140.755 8.24012 142.123 8.24012C143.491 8.24012 144.64 8.70435 145.57 9.63281C146.509 10.5613 146.978 11.704 146.978 13.061C146.978 14.4537 146.509 15.6277 145.57 16.5829C144.64 17.5381 143.491 18.0158 142.123 18.0158C140.755 18.0158 139.602 17.5381 138.663 16.5829C137.724 15.6277 137.255 14.4537 137.255 13.061ZM138.623 13.061C138.623 14.1144 138.962 15.0027 139.642 15.7259C140.321 16.4401 141.148 16.7972 142.123 16.7972C143.098 16.7972 143.92 16.4401 144.591 15.7259C145.27 15.0027 145.61 14.1144 145.61 13.061C145.61 12.0432 145.27 11.1862 144.591 10.4899C143.92 9.79351 143.098 9.44534 142.123 9.44534C141.148 9.44534 140.321 9.79351 139.642 10.4899C138.962 11.1862 138.623 12.0432 138.623 13.061Z" fill="#FF8C00" fill-opacity="0.94"/>
<path d="M157.596 16.7436C158.374 16.6365 158.929 16.0874 159.259 15.0965C159.59 14.1055 159.756 12.6191 159.756 10.6372V8.40081H165.281V17.8551H163.954V9.55247H161.016V10.6506C161.016 13.0431 160.757 14.842 160.238 16.0472C159.729 17.2525 158.848 17.8908 157.596 17.9622V16.7436Z" fill="#FF8C00" fill-opacity="0.94"/>
<path d="M176.785 17.8551L180.178 8.40081H181.586L184.98 17.8551H183.612L182.659 15.1366H179.092L178.14 17.8551H176.785ZM179.441 14.0386H182.311L181.265 11.0523L180.889 9.69977H180.862C180.728 10.2711 180.607 10.722 180.5 11.0523L179.441 14.0386Z" fill="#FF8C00" fill-opacity="0.94"/>
<path d="M213.729 7.9589C213.184 7.9589 212.715 7.80713 212.321 7.5036C211.937 7.19113 211.744 6.77154 211.744 6.24481V6.04395H212.791V6.23142C212.791 6.50818 212.884 6.7269 213.072 6.8876C213.26 7.03937 213.479 7.11525 213.729 7.11525C213.989 7.11525 214.212 7.03937 214.4 6.8876C214.588 6.7269 214.682 6.50371 214.682 6.21803V6.04395H215.714V6.24481C215.714 6.77154 215.522 7.19113 215.138 7.5036C214.753 7.80713 214.284 7.9589 213.729 7.9589ZM209.894 17.8551V8.40081H211.221V14.534L211.141 15.9133H211.168C211.481 15.3241 211.749 14.8599 211.972 14.5206L216.17 8.40081H217.471V17.8551H216.157V11.7219L216.237 10.3426H216.211C215.907 10.9139 215.643 11.3737 215.419 11.7219L211.195 17.8551H209.894Z" fill="#FF8C00" fill-opacity="0.94"/>
<path d="M229.447 13.061C229.447 11.704 229.917 10.5613 230.856 9.63281C231.794 8.70435 232.948 8.24012 234.316 8.24012C235.684 8.24012 236.833 8.70435 237.763 9.63281C238.701 10.5613 239.171 11.704 239.171 13.061C239.171 14.4537 238.701 15.6277 237.763 16.5829C236.833 17.5381 235.684 18.0158 234.316 18.0158C232.948 18.0158 231.794 17.5381 230.856 16.5829C229.917 15.6277 229.447 14.4537 229.447 13.061ZM230.815 13.061C230.815 14.1144 231.155 15.0027 231.835 15.7259C232.514 16.4401 233.341 16.7972 234.316 16.7972C235.29 16.7972 236.113 16.4401 236.784 15.7259C237.463 15.0027 237.803 14.1144 237.803 13.061C237.803 12.0432 237.463 11.1862 236.784 10.4899C236.113 9.79351 235.29 9.44534 234.316 9.44534C233.341 9.44534 232.514 9.79351 231.835 10.4899C231.155 11.1862 230.815 12.0432 230.815 13.061Z" fill="#FF8C00" fill-opacity="0.94"/>
<path d="M251.137 17.8551V8.40081H256.355V9.55247H252.465V17.8551H251.137Z" fill="#FF8C00" fill-opacity="0.94"/>
<path d="M267.837 17.8551V8.40081H269.164V14.534L269.084 15.9133H269.111C269.424 15.3241 269.692 14.8599 269.915 14.5206L274.113 8.40081H275.414V17.8551H274.1V11.7219L274.18 10.3426H274.154C273.85 10.9139 273.586 11.3737 273.362 11.7219L269.138 17.8551H267.837Z" fill="#FF8C00" fill-opacity="0.94"/>
</svg>
